Coordinates
version=1
nRows=9
nColumns=24
inDegrees=yes

Units are S.I. units (second, meters, Newtons, ...)
Angles are in degrees.

endheader
time	pelvis_tilt	pelvis_list	pelvis_rotation	pelvis_tx	pelvis_ty	pelvis_tz	hip_flexion_r	hip_adduction_r	hip_rotation_r	knee_angle_r	ankle_angle_r	subtalar_angle_r	mtp_angle_r	hip_flexion_l	hip_adduction_l	hip_rotation_l	knee_angle_l	ankle_angle_l	subtalar_angle_l	mtp_angle_l	lumbar_extension	lumbar_bending	lumbar_rotation
      5.14000000	      3.45305906	     -4.94328851	      9.72482720	      1.65604415	      0.93316201	     -0.17929129	     17.27123811	      8.11346311	     -7.70336818	    -23.46002874	     10.52037923	     -4.62285213	      0.00000000	      3.25492750	     -6.78007930	     -0.10276810	    -63.81817979	    -22.89915332	    -13.76371910	      0.00000000	    -24.58232851	      6.59197816	     -7.06758946
      5.15000000	      3.34821923	     -5.32600505	      9.62790946	      1.66861325	      0.93468875	     -0.17904180	     16.30985776	      8.69991634	     -7.66067274	    -22.89396125	     11.06829448	     -4.41251656	      0.00000000	      5.52491597	     -7.10291111	     -0.02355878	    -66.07825452	    -22.66351737	    -14.82701957	      0.00000000	    -24.47230759	      6.96475096	     -6.61332443
      5.16000000	      3.29166509	     -5.51466058	      9.36922547	      1.68109788	      0.93645942	     -0.17855524	     15.23968614	      9.14069231	     -7.38956169	    -22.30797515	     11.60723718	     -4.16404890	      0.00000000	      7.58023913	     -7.24000691	     -0.13363336	    -67.91795189	    -21.43912021	    -15.41216021	      0.00000000	    -24.49309642	      7.05017303	     -6.08008870
      5.17000000	      3.29873878	     -5.52487465	      9.08098304	      1.69345821	      0.93853232	     -0.17800438	     14.02627587	      9.41692367	     -6.99784620	    -21.64058460	     12.06362310	     -3.93797978	      0.00000000	      9.44662867	     -7.20512569	     -0.33026263	    -69.32247732	    -19.67533964	    -15.74696962	      0.00000000	    -24.64965264	      6.91802398	     -5.58058428
      5.18000000	      3.29618243	     -5.41856422	      8.74871486	      1.70572404	      0.94068213	     -0.17732188	     12.77165528	      9.57889574	     -6.52886623	    -20.90720133	     12.46510387	     -3.76659143	      0.00000000	     11.22193007	     -7.06461660	     -0.60830140	    -70.34251270	    -17.45492426	    -15.71965494	      0.00000000	    -24.83492568	      6.61578725	     -5.10509772
      5.19000000	      3.29641007	     -5.23244818	      8.41191851	      1.71787673	      0.94284594	     -0.17656344	     11.47397979	      9.65836835	     -5.99510014	    -20.10398083	     12.79511176	     -3.68745073	      0.00000000	     12.91618526	     -6.84992016	     -0.92111517	    -71.00541400	    -15.00294069	    -15.43383826	      0.00000000	    -25.05557454	      6.20470992	     -4.67204049
      5.20000000	      3.29005656	     -4.97235859	      8.04930987	      1.72995652	      0.94498125	     -0.17582185	     10.16343004	      9.63603302	     -5.48490786	    -19.27627802	     13.11282392	     -3.55244348	      0.00000000	     14.52100246	     -6.55187735	     -1.28884873	    -71.30693692	    -12.48363574	    -15.03045256	      0.00000000	    -25.28528576	      5.70297114	     -4.26057883
      5.21000000	      3.25746744	     -4.66516948	      7.71927832	      1.74193501	      0.94694649	     -0.17510715	      8.87126838	      9.54576525	     -4.94972791	    -18.42039777	     13.44492994	     -3.48155565	      0.00000000	     16.09383031	     -6.17995417	     -1.62792383	    -71.29635258	    -10.01764343	    -14.54975019	      0.00000000	    -25.49304104	      5.14924053	     -3.93680055
      5.22000000	      3.22235778	     -4.40918305	      7.38236742	      1.75385843	      0.94873331	     -0.17442682	      7.59067214	      9.49276505	     -4.39603086	    -17.54244061	     13.63594213	     -3.48481568	      0.00000000	     17.60631347	     -5.85789021	     -1.97303440	    -70.99292252	     -7.55932637	    -14.04492373	      0.00000000	    -25.69273251	      4.66554337	     -3.65888226
